<?xml version="1.0" encoding="UTF-8" standalone="no"?>
<svg
   xmlns:blush="http://design.blush"
   xmlns:dc="http://purl.org/dc/elements/1.1/"
   xmlns:cc="http://creativecommons.org/ns#"
   xmlns:rdf="http://www.w3.org/1999/02/22-rdf-syntax-ns#"
   xmlns:svg="http://www.w3.org/2000/svg"
   xmlns="http://www.w3.org/2000/svg"
   xmlns:xlink="http://www.w3.org/1999/xlink"
   xmlns:sodipodi="http://sodipodi.sourceforge.net/DTD/sodipodi-0.dtd"
   xmlns:inkscape="http://www.inkscape.org/namespaces/inkscape"
   viewBox="36.680000000000064 -4.215623669646561 969.4000000000002 648.5366113239676"
   overflow="visible"
   width="969.4000000000002px"
   height="648.5366113239676px"
   version="1.1"
   id="svg248"
   sodipodi:docname="regist-background.svg"
   inkscape:version="1.0.2 (e86c8708, 2021-01-15)">
  <metadata
     id="metadata254">
    <rdf:RDF>
      <cc:Work
         rdf:about="">
        <dc:format>image/svg+xml</dc:format>
        <dc:type
           rdf:resource="http://purl.org/dc/dcmitype/StillImage" />
        <dc:title></dc:title>
      </cc:Work>
    </rdf:RDF>
  </metadata>
  <defs
     id="defs252" />
  <sodipodi:namedview
     pagecolor="#ffffff"
     bordercolor="#666666"
     borderopacity="1"
     objecttolerance="10"
     gridtolerance="10"
     guidetolerance="10"
     inkscape:pageopacity="0"
     inkscape:pageshadow="2"
     inkscape:window-width="1676"
     inkscape:window-height="993"
     id="namedview250"
     showgrid="false"
     inkscape:zoom="1.0547246"
     inkscape:cx="481.81834"
     inkscape:cy="335.33"
     inkscape:window-x="2"
     inkscape:window-y="27"
     inkscape:window-maximized="0"
     inkscape:current-layer="Background" />
  <g
     id="Master/Scene/3 Characters"
     stroke="none"
     stroke-width="1"
     fill="none"
     fill-rule="evenodd"
     blush:i="0">
    <g
       id="Background"
       blush:width="1053"
       blush:height="680"
       blush:component="Background"
       blush:i="0.0"
       transform="scale(1 1)">
      <g
         id="Background/Home"
         stroke="none"
         stroke-width="1"
         fill="none"
         fill-rule="evenodd"
         blush:i="0.0.0">
        <g
           id="Clock"
           transform="translate(741.000000, 85.000000)"
           blush:i="0.0.0.0">
          <circle
             id="Clock-Frame"
             fill="#F2F2F2"
             cx="53"
             cy="53"
             r="53"
             blush:i="0.0.0.0.0" />
          <circle
             id="Time"
             fill-opacity=".1"
             fill="#000"
             cx="53"
             cy="11"
             r="3"
             blush:i="0.0.0.0.1" />
          <circle
             id="circle12"
             fill-opacity=".1"
             fill="#000"
             cx="11"
             cy="53"
             r="3"
             blush:i="0.0.0.0.2" />
          <circle
             id="circle14"
             fill-opacity=".1"
             fill="#000"
             cx="95"
             cy="53"
             r="3"
             blush:i="0.0.0.0.3" />
          <circle
             id="circle16"
             fill-opacity=".1"
             fill="#000"
             cx="53"
             cy="95"
             r="3"
             blush:i="0.0.0.0.4" />
          <polygon
             id="Hand"
             fill="#AFB9C5"
             points="53 17 55 52 51 52"
             blush:i="0.0.0.0.5" />
          <polygon
             id="polygon19"
             fill="#AFB9C5"
             transform="translate(62.213203, 62.213203) rotate(135.000000) translate(-62.213203, -62.213203)"
             points="62.2132034 50.2132034 64.2132034 74.2132034 60.2132034 74.2132034"
             blush:i="0.0.0.0.6" />
          <circle
             id="circle21"
             fill="#C5CFD6"
             cx="53"
             cy="53"
             r="4"
             blush:i="0.0.0.0.7" />
        </g>
        <g
           id="Background-Shape-2"
           opacity=".346"
           transform="translate(41.000000, 244.000000)"
           blush:i="0.0.0.1">
          <path
             d="M0.331540844,172.384858 C11.4098407,95.3361561 605.807792,-53.3759549 716.1557,19.6030524 C826.503608,92.5820598 720.417781,229.544566 489.169325,264.617178 C257.920869,299.68979 -10.746759,249.433559 0.331540844,172.384858 Z"
             id="Background-Shape"
             fill="#F2F2F2"
             transform="translate(380.000000, 138.000000) scale(-1, 1) translate(-380.000000, -138.000000)"
             blush:i="0.0.0.1.0" />
          <path
             d="M244.239844,222.447681 C254.500068,156.991794 805.00478,30.6550381 907.204061,92.65356 C1009.40334,154.652082 983.53471,285.058789 769.362767,314.854345 C555.190823,344.649901 233.97962,287.903567 244.239844,222.447681 Z"
             id="path25"
             fill="#C7D1D9"
             blush:i="0.0.0.1.1" />
        </g>
        <g
           id="g32"
           transform="translate(57.000000, 0.000000)"
           blush:i="0.0.0.2">
          <g
             id="Light"
             transform="translate(0.000000, 152.673469)"
             blush:i="0.0.0.2.0">
            <ellipse
               id="Hanging-Lamp-Light"
               fill="#F2F2F2"
               cx="49.5"
               cy="34.5"
               rx="42.5"
               ry="22.5"
               blush:i="0.0.0.2.0.0" />
            <path
               d="M99,50 C99,22.3857625 76.8380951,0 49.5,0 C22.1619049,0 -7.10542736e-15,22.3857625 -7.10542736e-15,50"
               id="Hanging-Lamp"
               fill="#C7D1D9"
               blush:i="0.0.0.2.0.1" />
          </g>
          <rect
             id="Wire"
             fill="#C7D1D9"
             x="47"
             y="0"
             width="5"
             height="160"
             blush:i="0.0.0.2.1" />
        </g>
        <g
           id="g42"
           opacity=".7"
           transform="translate(179.000000, 0.000000)"
           blush:i="0.0.0.3">
          <g
             id="g38"
             transform="translate(0.000000, 113.000000)"
             blush:i="0.0.0.3.0">
            <ellipse
               id="ellipse34"
               fill="#F2F2F2"
               cx="37"
               cy="27.842"
               rx="31.768"
               ry="18.158"
               blush:i="0.0.0.3.0.0" />
            <path
               d="M74,40.3508772 C74,18.0657031 57.4345357,0 37,0 C16.5654643,0 -7.10542736e-15,18.0657031 -7.10542736e-15,40.3508772"
               id="path36"
               fill="#C7D1D9"
               blush:i="0.0.0.3.0.1" />
          </g>
          <rect
             id="rect40"
             fill="#C7D1D9"
             x="35"
             y="0"
             width="5"
             height="136"
             blush:i="0.0.0.3.1" />
        </g>
        <g
           id="g50"
           transform="translate(746.000000, 198.000000)"
           blush:i="0.0.0.4">
          <path
             d="M60,36.23565 L101.503662,14.0207074 C103.862187,12.7583005 106.695618,12.7583005 109.054143,14.0207074 L208.550482,67.2763807 C213.752582,70.0608182 217,75.482352 217,81.3827703 L217,406 L217,406"
             id="Body"
             stroke="#CBCBCB"
             stroke-width="8"
             blush:i="0.0.0.4.0" />
          <rect
             id="Lamp-Base"
             fill="#AFB9C5"
             x="187"
             y="405"
             width="59"
             height="7"
             rx="3"
             blush:i="0.0.0.4.1" />
          <g
             id="Lamp-Top"
             transform="translate(48.083261, 49.083261) rotate(45.000000) translate(-48.083261, -49.083261) translate(14.583261, 14.583261)"
             blush:i="0.0.0.4.2">
            <path
               d="M33.0303119,1.38390164 C51.2557087,1.38390164 66.0303119,16.1585049 66.0303119,34.3839016 L66.0303119,62.3839016 L66.0303119,62.3839016 L0.03031192,62.3839016 L0.03031192,34.3839016 C0.03031192,16.1585049 14.8049152,1.38390164 33.0303119,1.38390164 Z"
               id="Lamp"
               fill="#C5CFD6"
               blush:i="0.0.0.4.2.0" />
            <ellipse
               id="ellipse47"
               fill="#F2F2F2"
               cx="33.209"
               cy="61.445"
               rx="33"
               ry="6.5"
               blush:i="0.0.0.4.2.1" />
          </g>
        </g>
        <g
           id="Big-Leaf-Plant"
           transform="translate(52.000000, 371.000000)"
           blush:i="0.0.0.5">
          <g
             id="Big-Ass-Leaf"
             transform="translate(22.000000, 0.000000)"
             blush:i="0.0.0.5.0">
            <path
               d="M25.2579539,1.17309307 C28.1225306,0.823121436 31.1799041,0.946659994 33.8438766,2.07736611 C39.5085416,4.48200834 41.1187317,11.1741436 41.0410516,16.6135182 C40.9573065,22.4680411 39.714051,28.8626602 44.1651162,33.5797909 C46.2111822,35.7484553 48.7563294,37.4081152 50.7654292,39.6166003 C52.9121851,41.9766643 54.5966293,44.6770468 55.8438343,47.5768289 C58.1338507,52.9031791 59.2578307,59.1668975 57.163736,64.7542738 C55.3199224,69.6736307 50.6810935,74.1137719 51.6834319,79.7075568 C52.728959,85.5429164 58.61221,90.0040977 62.290444,94.3505245 C66.4531656,99.2693182 70.2859018,105.555987 70.9155339,112.006469 C71.5192882,118.188324 68.8284074,124.440381 64.698769,129.113358 C56.447741,138.450738 44.0451661,143.028231 31.539564,143 C26.2300259,142.987569 20.2185507,142.747768 15.6365623,139.894514 C14.2204324,139.012594 13.4733329,138.02316 12.6314834,136.647706 C11.8766749,135.414323 10.8795787,134.61206 9.72545995,133.739319 C7.18986484,131.822394 5.35871537,129.238844 4.19012177,126.346829 C-0.347779789,115.114023 3.27916675,101.217665 9.6312018,91.2428455 C11.1363537,88.8796069 12.3686453,86.6054629 11.6374364,83.7886216 C10.8743978,80.8481806 8.99901449,78.1960629 7.34025921,75.6685039 C5.70114537,73.1704875 3.82987864,70.7874137 2.54875756,68.0865102 C1.20699289,65.2571214 0.829162714,62.2942757 1.0662375,59.1977452 C1.51180331,53.3811147 4.02273241,48.0134805 7.57766153,43.3356252 C11.0017161,38.8298272 15.0221277,34.5184764 15.0311362,28.6145236 C15.0410288,22.3571379 10.8577315,16.7908073 12.6398779,10.4289791 C13.3778032,7.79466143 14.8599543,5.09183557 17.2485499,3.51252303 C19.5392578,1.99784616 22.5638536,1.50223723 25.2579539,1.17309307 Z"
               id="leaf"
               fill="#C7D1D9"
               blush:i="0.0.0.5.0.0" />
            <path
               d="M23.3861597,11.1764309 C23.4398778,10.3360403 24.436749,9.83200515 25.2215077,10.0513011 C26.2544664,10.3400972 26.2346007,11.3052716 26.2073293,12.1651664 C26.1237304,14.8082784 26.5062963,17.3769517 27.1416559,19.9415199 C28.4621824,25.2735426 30.9026929,30.1861254 32.8361895,35.3079558 C34.7680009,40.4254986 35.6748339,45.7092068 34.5415523,51.1242976 C33.4732058,56.2299732 31.7948008,61.2033156 30.7014513,66.3154357 C29.7377524,70.8211129 28.7123306,75.5726024 30.1799208,80.0668063 C31.5921035,84.3928044 34.714245,87.9158566 36.9624576,91.8252937 C41.6165172,99.9180775 43.681267,108.896054 43.9574365,118.135184 C44.0854233,122.425481 43.970168,126.755229 42.9748682,130.963076 C42.4020068,133.385966 41.6321776,136.660394 39.5559237,138.333163 C38.5985099,139.104565 36.9610282,139.371304 36.1552196,138.228946 C35.3986826,137.157504 36.0623713,135.498805 36.3025457,134.356816 C37.3426754,129.413332 37.551926,124.361287 37.302904,119.341696 C37.061891,114.479563 36.4874289,109.625549 34.9571817,104.98201 C33.536907,100.672738 31.379247,96.8021749 28.8398113,93.0324782 C26.2521442,89.1908938 23.562037,85.3411131 22.4928221,80.7892312 C21.4064684,76.1661343 22.2890218,71.4619848 23.4691168,66.9271792 C24.717096,62.1306341 26.3517536,57.4716876 28.0416981,52.8051023 C29.688607,48.2578629 30.2723555,43.9553657 29.3631928,39.1961513 C27.5671855,29.7935298 22.7598022,20.9681166 23.3861597,11.1764309 Z"
               id="middle-thing"
               fill="#C5CFD6"
               blush:i="0.0.0.5.0.1" />
          </g>
          <g
             id="g59"
             transform="translate(32.000000, 11.000000)"
             blush:i="0.0.0.5.1">
            <path
               d="M90.8923323,1.58227349 C94.4371815,2.65860484 97.957883,4.39521888 100.484813,7.11827966 C105.857908,12.908958 104.209295,21.6609092 101.243138,28.053245 C98.0504357,34.9333908 93.2122671,41.8490652 95.9396345,49.7432112 C97.193196,53.3723397 99.3011711,56.6591395 100.490327,60.3161304 C101.760821,64.2239944 102.30919,68.2938229 102.239325,72.3720051 C102.109984,79.8624039 100.11754,87.8547607 94.7080978,93.373143 C89.9453006,98.2317101 82.1575199,101.069515 80.3765031,108.20631 C78.5184553,115.651265 83.0609213,123.987774 85.0777737,131.041472 C87.360351,139.024107 88.5328812,148.452761 85.8618992,156.408818 C83.3025511,164.033728 76.8418128,170.027718 69.5281945,173.405772 C54.9151643,180.156033 37.9486721,179.117398 23.2958182,172.578162 C17.0747521,169.801475 10.1506305,166.390577 6.28452896,160.632591 C5.08969654,158.852907 4.73639937,157.294118 4.47600508,155.229521 C4.2426077,153.378223 3.49715739,151.910733 2.60478713,150.278208 C0.643995898,146.69213 -0.138196518,142.68415 0.0197662548,138.65605 C0.634485801,123.011122 12.2336238,108.463743 24.9562471,99.9717321 C27.9707605,97.9599181 30.6181436,95.9115216 31.2493822,92.1998602 C31.9086177,88.325468 31.1107853,84.2133878 30.5011993,80.3613088 C29.8990358,76.5543855 28.9638254,72.7626253 28.8887906,68.9019982 C28.8105393,64.857873 29.9334288,61.1573785 31.8482022,57.6186721 C35.4452563,50.9715661 41.2274568,45.9299031 47.869576,42.2471027 C54.2672493,38.6996981 61.2616135,35.6924899 64.392784,28.7150074 C67.7118026,21.3200057 65.7473551,12.5608727 71.200258,5.96432077 C73.4581719,3.232793 76.6252004,0.8074086 80.2615533,0.182273212 C83.7489295,-0.417345716 87.5584437,0.569996664 90.8923323,1.58227349 Z"
               id="path55"
               fill="#C7D1D9"
               blush:i="0.0.0.5.1.0" />
            <path
               d="M83.6512541,13.8108813 C84.1542014,12.8438162 85.5838278,12.76941 86.3866021,13.4404234 C87.4431996,14.3238303 86.9144837,15.4564117 86.4322458,16.4604357 C84.9502268,19.5466855 84.0522837,22.7891134 83.4520845,26.1591764 C82.2036693,33.1656731 82.4845328,40.2624713 82.0629519,47.3413268 C81.6416462,54.4142215 79.9347993,61.1466733 75.7736201,66.9654284 C71.8504189,72.4517974 67.2831774,77.4617029 63.3273648,82.942599 C59.8407636,87.7732777 56.1532511,92.8627051 55.5155862,98.9541078 C54.9012266,104.817274 56.7068601,110.625805 57.2882412,116.433853 C58.4918732,128.456945 56.2042044,140.171178 51.6883608,151.25723 C49.5910773,156.405033 47.1887071,161.472065 43.8211358,165.93348 C41.8823541,168.502498 39.2672836,171.9767 35.9634293,172.869426 C34.4399139,173.281139 32.3854941,172.738768 32.0415379,170.963598 C31.7180544,169.298235 33.362815,167.681804 34.2417421,166.455303 C38.0470052,161.146218 40.9375702,155.273083 43.2752764,149.198186 C45.5398829,143.313954 47.4103318,137.264567 48.0529422,130.963476 C48.6490797,125.115876 48.1532232,119.401324 47.1581268,113.606123 C46.1442823,107.70051 45.0149464,101.731498 46.1486425,95.7805914 C47.2995951,89.7363667 50.7952573,84.6281193 54.5501475,79.8763654 C58.5214952,74.8502305 62.8729252,70.1897143 67.2930034,65.5491295 C71.6002552,61.0273221 74.5361665,56.238113 75.9655983,50.1255641 C78.7899076,38.049307 77.7906897,25.0782485 83.6512541,13.8108813 Z"
               id="path57"
               fill="#C5CFD6"
               blush:i="0.0.0.5.1.1" />
          </g>
          <g
             id="g65"
             transform="translate(0.000000, 57.000000)"
             blush:i="0.0.0.5.2">
            <path
               d="M13.3059765,-1.56319402e-13 C19.200266,-1.56319402e-13 24.3823319,3.12436119 27.9530894,7.55793367 C32.133,12.74806 32.977213,19.0862362 34.674537,25.2719426 C35.5191207,28.3503093 36.9717453,31.4062221 39.5173606,33.4977007 C41.832736,35.3997692 44.7720948,35.7804002 47.5435009,36.7097048 C53.0822347,38.5668654 57.5546724,43.0406377 59.3209572,48.4994874 C61.4757949,55.1581758 59.1934169,61.8733613 59.5864189,68.6215035 C59.9471652,74.818799 66.0576058,78.6852277 70.9738392,81.6560327 C75.8214826,84.5855514 80.1886254,87.3278329 81.6486651,93.0347628 C83.196945,99.0875562 83.7163751,105.843666 81.5719185,111.822941 C78.0015318,121.778741 67.5524967,126.162697 57.4560511,126.842473 C48.2931709,127.459233 36.7719075,126.490815 29.8906637,119.839732 C25.7730402,115.859585 24.2818569,110.293173 24.4668644,104.75501 C24.581799,101.311223 25.2639913,97.8993066 26.1460214,94.571411 C26.7711171,92.2126578 27.6157008,89.864045 27.8563219,87.4267028 C28.4958771,80.9422138 22.5025956,79.6967428 17.4009839,77.9163603 C10.9183036,75.6535796 6.37987122,71.3797201 3.22399048,65.4254344 C0.285002382,59.8814769 -0.948134291,53.6581058 0.813701389,47.5542477 C1.71352782,44.4374919 3.34559866,41.6097404 5.55901596,39.2046306 C6.53336448,38.1460346 7.90664718,37.2630865 8.78608199,36.1508907 C9.60693725,35.1122136 9.42823254,33.766424 9.1453452,32.5499259 C7.83731568,26.930639 3.7619584,22.2775971 2.30451394,16.6684507 C0.988698535,11.6054427 1.76654602,5.30420703 6.395443,2.0378788 C8.39530446,0.626538178 10.8615778,0.0155729143 13.3059765,-1.56319402e-13 Z"
               id="path61"
               fill="#C5CFD6"
               blush:i="0.0.0.5.2.0" />
            <path
               d="M21.3376913,14.6413767 C27.5850069,21.2960229 29.2831027,30.3249745 29.7814609,39.0761511 C30.0606151,43.9833868 29.7700594,49.1593434 31.2118042,53.919181 C32.4453787,57.993092 35.3373275,61.1072854 38.3182819,64.0505403 C44.3188091,69.9754389 51.0107852,75.9988444 52.7658888,84.5736503 C53.7957065,89.6058303 53.1005796,94.8035164 54.523567,99.7802864 C55.8174594,104.303997 58.0955633,108.748395 60.8665085,112.568434 C63.097535,115.644601 66.0041955,117.999712 68.4430245,120.867276 C69.1870678,121.742611 70.2529291,123.031168 69.9458228,124.266849 C69.5864899,125.714031 67.7431162,126.172161 66.4352477,125.944726 C63.385884,125.414889 60.8190633,122.503142 58.8252627,120.38633 C55.9097752,117.290969 53.432328,113.961654 51.4186666,110.227085 C49.1832266,106.079656 47.3832523,101.678717 46.6141992,97.0257156 C45.8160904,92.1985167 46.2133058,87.1677853 44.3908963,82.535065 C41.3242463,74.7399845 33.8860201,70.1398585 28.5081649,64.0643023 C21.8077295,56.4937595 22.8070205,47.0715048 23.4933204,37.7589838 C23.8703073,32.6413346 24.2450873,26.8620233 21.6591415,22.1894658 C20.6719877,20.4058395 18.4711201,18.7428117 18.0466881,16.7154534 C17.6579319,14.857947 19.7797242,12.9808841 21.3376913,14.6413767 Z"
               id="path63"
               fill="#AFB9C5"
               blush:i="0.0.0.5.2.1" />
          </g>
          <path
             d="M28,181 C28,219.05849 34.211229,239 67.0000931,239 C99.7889571,239 106,219.05849 106,181 L28,181 Z"
             id="Base"
             fill="#89C5CC"
             blush:i="0.0.0.5.3" />
        </g>
        <g
           id="Table"
           transform="translate(219.000000, 353.000000)"
           blush:i="0.0.0.6">
          <g
             id="g73"
             transform="translate(23.000000, 0.000000)"
             blush:i="0.0.0.6.0">
            <rect
               id="rect69"
               fill="#AFB9C5"
               x="21"
               y="144"
               width="38"
               height="9"
               rx="2"
               blush:i="0.0.0.6.0.0" />
            <path
               d="M38.2168511,71 L42.7831489,71 C43.3012374,86.4188034 45.7068545,101.08547 50,115 L56.5,115 C65.0604136,115 72,121.939586 72,130.5 C72,139.060414 65.0604136,146 56.5,146 L23.5,146 C14.9395864,146 8,139.060414 8,130.5 C8,121.939586 14.9395864,115 23.5,115 L31,115 C35.2931455,101.08547 37.6987626,86.4188034 38.2168511,71 Z"
               id="Lamp-Body"
               fill="#C7D1D9"
               blush:i="0.0.0.6.0.1" />
            <path
               d="M4.62222222,1.67861504 C16.0814815,0.559538347 27.5407407,0 39,0 C50.4592593,0 61.9185185,0.559538347 73.3777778,1.67861504 L78,81.1330604 C65,82.3776868 52,83 39,83 C26,83 13,82.3776868 0,81.1330604 L4.62222222,1.67861504 Z"
               id="Shade"
               fill="#C5CFD6"
               blush:i="0.0.0.6.0.2" />
          </g>
          <path
             d="M125,257 L104,257 L104,175 L21,175 L21,257 L0,257 L0,153 L125,153 L125,257 Z"
             fill="#F2F2F2"
             blush:i="0.0.0.6.1"
             id="path75" />
        </g>
        <g
           id="Plant"
           transform="translate(788.000000, 328.000000)"
           blush:i="0.0.0.7">
          <g
             id="Succulents"
             transform="translate(13.000000, 0.000000)"
             blush:i="0.0.0.7.0">
            <path
               d="M3.38092413,0.208187006 C12.213925,21.197225 27.2292006,35.7805339 35.1818951,57.6048833 C39.8977667,70.5473636 41.863552,84.6195065 41.9827844,99.0319481 C42.0475621,106.860255 41.9112966,114.693588 41.8746494,122.521895 C41.8390346,130.156002 41.6315393,137.74129 40.9835037,145.326577 C40.3323712,152.952069 39.603299,160.486743 39.2817329,168.159259 C39.0313966,174.137461 38.9170678,181.09097 36.890634,186.544007 C35.2791907,190.880662 31.1834821,191.51603 30.0967128,186.256476 C29.4928087,183.332706 29.5689419,180.068279 29.6355262,177.063384 C29.7209502,173.208101 29.9452206,169.358561 30.0595494,165.503996 C30.5191876,150.036197 29.9232839,134.565527 30.2347849,119.091626 C30.5390596,103.9731 32.4823921,88.871087 30.3320805,73.8534305 C28.5564992,61.4519104 24.045542,50.802498 18.8615156,40.5931767 C13.873887,30.7708195 8.44546012,21.187174 5.07495258,10.0143908 C4.10715753,6.80560332 3.35898744,3.48051124 3,0.0301404047 C3.15691184,-0.0427294746 3.28388655,0.0164997376 3.38092413,0.208187006 Z"
               id="Thi-Succs!"
               fill="#C1DEE2"
               blush:i="0.0.0.7.0.0" />
            <path
               d="M0.973588404,41.6169557 C2.7226644,42.8799919 3.70001184,44.7275773 4.88222633,46.55055 C6.35238241,48.8169596 8.08078375,50.8630865 9.55056393,53.131137 C12.6152999,57.8596264 15.3078921,62.8785444 18.1016022,67.7986018 C23.4055915,77.1374401 27.4326388,87.0907728 29.4271794,97.8948808 C31.4946451,109.09156 32.052109,120.648403 32.9193169,132.012037 C33.8391512,144.05621 34.7653759,156.188167 34.8871684,168.278693 C34.9416743,173.695515 35.2345026,179.445837 34.5841907,184.824509 C34.1793433,188.173053 32.6682138,191.026883 29.2614062,191 C22.0249003,190.94238 18.6274903,182.927289 17.2080811,176.353675 C15.118813,166.674363 14.7019367,156.392862 15.0327312,146.494087 C15.432316,134.55821 17.5039166,122.801595 18.4004449,110.911661 C19.3499755,98.3247808 18.8135622,85.9602344 14.4861685,74.1088605 C12.2999174,68.1197961 9.76257314,62.2743052 7.48422591,56.3250312 C6.51402064,53.7919851 5.71936199,51.1900238 4.40896463,48.831317 C2.95121334,46.2076145 1.14161698,43.8259359 -3.0475622e-14,41 C0.324404167,41.2059254 0.649184237,41.4114405 0.973588404,41.6169557 Z"
               id="path79"
               fill="#89C5CC"
               blush:i="0.0.0.7.0.1" />
            <path
               d="M84.3341427,16.5176702 C84.5560133,16.345237 84.7781571,16.1728402 85,16 C84.3609397,18.6926575 83.2065589,20.8798938 82.3241537,23.3413066 C81.5309592,25.5541267 81.1289139,28.058225 80.5946654,30.4769505 C79.3401416,36.1577567 77.8904265,41.7105156 76.7055048,47.4397171 C74.3598951,58.7767524 74.8035283,70.9901843 76.3418843,83.5681524 C77.7947507,95.4496261 80.092478,107.312713 81.1873452,119.191609 C82.0949201,129.04307 82.4850091,139.201741 81.6192928,148.601 C81.0309846,154.984369 79.1025548,162.605994 73.8481376,161.961759 C71.3744617,161.658503 70.0840672,158.681129 69.5641892,155.320205 C68.7291114,149.921644 68.5543005,144.245802 68.2287956,138.877693 C67.5023548,126.895908 67.3576487,114.950973 67.2142162,103.092499 C67.078414,91.904007 66.7045185,80.493842 67.4521172,69.5872699 C68.1731866,59.0630547 70.4284885,49.5797393 73.6530782,40.8297246 C75.3514544,36.2198206 76.9696914,31.5020505 78.8779164,27.1084404 C79.7930343,25.0009936 80.9110333,23.1387509 81.826535,21.0329683 C82.5626976,19.3391662 83.148338,17.6010976 84.3341427,16.5176702 Z"
               id="path81"
               fill="#C1DEE2"
               blush:i="0.0.0.7.0.2" />
            <path
               d="M3.20880772,76.3018223 C4.16572159,74.6953252 6.27206517,79.9934093 6.59263271,80.6597751 C6.45704992,80.3283084 6.32092787,79.9973172 6.18360206,79.666614 C8.08298767,82.8249267 9.82062484,86.1127294 10.9009829,89.7341519 C11.9700503,93.3191128 12.888301,96.9765376 13.89141,100.586979 C15.7735895,107.360999 18.2016657,113.942756 19.9069626,120.7778 C21.5685818,127.438224 21.9875459,133.985891 21.5852981,140.875198 C21.1672391,148.035491 20.9114736,155.305643 21.3991881,162.462075 C21.632116,165.880018 22.7427231,169.063767 23.5039187,172.354313 C24.2660416,175.648102 24.8662939,178.985809 25.7672782,182.238759 C25.974095,181.814996 26.0004407,183.231705 26,183.339248 C25.99434,184.151918 25.8808641,184.833382 25.6194022,185.603962 C24.9475372,187.585538 23.69062,189.268993 21.7779741,189.815552 C18.3215161,190.803119 15.1122443,187.659032 13.9975999,184.339008 C12.398575,179.575285 11.5174472,174.310953 10.7554023,169.304056 C10.0567643,164.712777 9.89144111,160.094092 10.0990013,155.439587 C10.5078659,146.260651 12.1689639,137.201885 12.618303,128.025744 C13.1073521,118.035719 11.1280407,108.649277 9.47082403,98.9248264 C8.67258323,94.2391921 7.90974363,89.5977685 6.35630439,85.1336672 C5.7273694,83.3259909 4.90736765,81.7307159 4.04759418,80.0614309 C3.55838288,79.1117083 2.56905129,77.4176151 3.20880772,76.3018223 Z"
               id="path83"
               fill="#C1DEE2"
               blush:i="0.0.0.7.0.3" />
            <path
               d="M31.2520927,60.6970481 C30.8556379,72.1418193 30.1720216,83.4997745 28.6461885,94.8239462 C27.0889362,106.380282 25.300327,117.896941 23.8019539,129.46349 C22.3433779,140.722452 20.8145443,152.168401 21.0183676,163.584496 C21.1684795,171.99346 19.7741408,186.218697 29.1133695,190.368969 C38.572085,194.57188 40.6010206,176.62338 41.2221153,170.699078 C42.4123367,159.332874 42.027006,147.846855 41.4493767,136.418583 C40.8563654,124.689401 39.8664321,113.01993 38.6395466,101.333567 C37.2768349,88.3528226 36.2076085,75.3135458 35.3494633,62.2958749 C34.92489,55.8569635 34.820295,49.4286586 34.9374389,42.9881759 C35.048171,36.9106701 34.8172608,30.7703111 32.6564941,25 C32.5432773,25.0821019 32.4308129,25.1642038 32.3175887,25.2459129"
               id="path85"
               fill="#56919C"
               blush:i="0.0.0.7.0.4" />
            <path
               d="M80.0827466,96.9552251 C78.3816844,99.4332953 76.6669438,101.887253 75.0605101,104.512188 C72.1861393,109.208575 69.5869207,114.431593 68.8049844,121.146824 C67.1686355,135.200365 68.4814231,150.378956 68.7982735,164.862679 C68.863082,167.822444 68.4887518,170.692884 69.6553203,173.509621 C70.713019,176.063863 72.6905254,178.01037 74.5755064,178 C78.6108036,177.976942 77.9951288,168.09535 78.0017787,163.745849 C78.0139471,156.122577 77.1591232,148.422037 77.232697,140.805889 C77.3061571,133.260434 77.7650203,125.694154 78.8589994,118.527917 C79.96657,111.274547 81.5885624,104.309427 83.7291347,97.809562 C84.0261843,96.9075488 86.1579416,89.9374968 84.1438969,91.1387197"
               id="path87"
               fill="#89C5CC"
               blush:i="0.0.0.7.0.5" />
            <path
               d="M62.262195,22 C59.6091513,22 59.625416,35.2259973 59.5456053,36.9248132 C59.257379,43.055394 59.3250857,49.1876151 59.1427693,55.3194261 C58.7437159,68.7008304 58.2535042,82.1995075 56.243485,95.4263249 C55.1613125,102.546754 53.9066581,109.63561 52.557063,116.701913 C51.2036854,123.788718 49.3869518,130.866913 48.4965519,138.043518 C47.6417075,144.942523 48.1247324,151.977253 48.2419898,158.910292 C48.3592472,165.885155 48.5699324,172.87396 49.4837837,179.787726 C49.7092206,181.494333 49.9736172,183.194789 50.256548,184.891145 C50.4921976,186.304569 50.3548929,188.057511 50.7535682,189.400818 C51.3928102,191.552324 54.1328514,192.256371 55.9779537,191.920134 C60.9704721,191.008604 64.1594958,184.739838 65.8650239,180.159637 C68.0429859,174.311167 69.1985389,167.967363 70.3389619,161.803978 C71.6310631,154.821324 72.3883191,147.732059 72.7434956,140.623111 C73.4655743,126.17518 72.5388625,111.711667 71.5039711,97.310071 C70.928275,89.3006645 70.263312,81.3265219 69.2458201,73.3667309 C68.2324891,65.4409736 66.9324447,57.5504802 66.0859217,49.6013503 C65.4708876,43.8246382 64.8649315,38.0401352 64.4666346,32.2412807 C64.3713156,30.8586094 64.2911267,22 62.262195,22"
               id="path89"
               fill="#56919C"
               blush:i="0.0.0.7.0.6" />
            <path
               d="M58.9407927,118.138703 C58.5083549,104.252695 52.9265288,43.2589078 51.6565806,26.4671323 C51.3390091,22.2641696 48.2815387,4.76463908 47.8849122,-1.2490009e-14 C46.809561,1.346742 46.901454,22.3094454 46.9132785,27.1261944 C46.9257786,31.8908335 46.3348929,36.5764535 46.0308351,41.3154647 C45.7210339,46.1510074 38.5722965,108.600882 37.6445823,113.247206 C35.7989512,122.490734 34.5638007,131.976445 33.6110862,141.427558 C32.6830341,150.639478 31.2401108,160.357975 32.4820181,169.618161 C32.7674946,171.749969 33.2191894,173.847606 33.9546715,175.805999 C34.749276,177.922003 35.2938774,179.878687 35.9317231,182.09293 C36.9580872,185.659469 38.8148671,188.78948 41.667943,190.261798 C47.51734,193.280756 50.6582574,186.44667 52.2505069,180.496744 C54.7934439,170.994802 56.4255588,161.337812 57.190771,151.358766 C58.0374031,140.318301 59.2870808,129.255197 58.9407927,118.138703"
               id="path91"
               fill="#89C5CC"
               blush:i="0.0.0.7.0.7" />
          </g>
          <g
             id="Planter"
             transform="translate(0.000000, 159.000000)"
             blush:i="0.0.0.7.1">
            <rect
               id="Vase"
               fill="#FFF"
               x="10"
               y="0"
               width="91"
               height="91"
               rx="2"
               blush:i="0.0.0.7.1.0" />
            <rect
               id="Leg"
               fill="#C5CFD6"
               x="0"
               y="10"
               width="10"
               height="113"
               rx="2"
               blush:i="0.0.0.7.1.1" />
            <rect
               id="rect96"
               fill="#C5CFD6"
               x="50"
               y="10"
               width="10"
               height="113"
               rx="2"
               blush:i="0.0.0.7.1.2" />
            <rect
               id="rect98"
               fill="#C5CFD6"
               x="101"
               y="10"
               width="10"
               height="113"
               rx="2"
               blush:i="0.0.0.7.1.3" />
          </g>
        </g>
      </g>
    </g>
    <g
       transform="translate(728.000000, 427.000000) scale(-1, 1) translate(-728.000000, -427.000000) translate(578.000000, 214.000000) scale(1 1)"
       blush:has-customizable-colors="true"
       blush:width="300"
       blush:height="426"
       id="g144"
       blush:component="Master/Pose/Standing"
       blush:i="0.1">
      <g
         id="Master/Pose/Standing"
         stroke="none"
         stroke-width="1"
         fill="none"
         fill-rule="evenodd"
         blush:has-customizable-colors="true"
         blush:i="0.1.0">
        <g
           id="Head/Front"
           transform="translate(82.000000, 0.000000) scale(1 1)"
           blush:width="136"
           blush:height="104"
           blush:component="Head/Front"
           blush:i="0.1.0.0">
          <defs
             blush:i="0.1.0.0.0"
             id="defs105">
            <path
               d="M51.4175453,12.0507955 C51.8498576,10.8051312 54.7962768,6.94578045 49.5487779,3.26896817 C48.605788,2.60823496 47.0479654,3.26680115 45.6982041,2.84976736 C44.6826295,2.53598679 44.3402497,1.11914512 43.1760935,0.871968648 C41.9683844,0.615544926 40.6526543,1.77773804 39.2876744,1.67560585 C38.4512965,1.61302535 37.1608106,0.309613766 36.2900993,0.239406864 C34.7357321,0.114075645 33.3236788,1.58124561 31.8056285,1.67560585 C30.9255704,1.73030923 29.9045174,0.314316544 29.0310773,0.239406864 C26.9052532,0.0570877616 24.9691519,1.0481315 23.0958488,1.34868149 C21.3693306,1.62568151 20.5665115,5.16380349 19.2947513,6 C15.3039208,8.62401555 12.1771246,9.35770789 8.938704,12.0507955 C5.08904423,15.2522965 4.352246,17.6341562 2.75742877,19.767516 C1.16261154,21.9008757 0.177496659,29.4172796 1.10754484,34.2343867 C1.65615994,37.0758928 3.08584831,44.8361111 6.27968827,47.8406111 C10.6511987,51.952966 19.5447273,53.1714059 20.3342266,52.6227265 C23.990621,50.0816371 32.186894,36.0268608 38,31.0596268 C42.2746625,27.4069756 48.7394296,19.767516 51.4175453,12.0507955 Z"
               id="headfrontturban2-path-1"
               blush:i="0.1.0.0.0.0" />
          </defs>
          <g
             id="Head/Front/Turban2"
             stroke="none"
             stroke-width="1"
             fill="none"
             fill-rule="evenodd"
             blush:i="0.1.0.0.1">
            <g
               id="Head"
               transform="translate(54.000000, 31.000000)"
               fill="#915b3c"
               blush:color="Skin-500"
               blush:i="0.1.0.0.1.0">
              <path
                 d="M38.1433414,9.13393292 C43.9381521,19.9350547 43.249578,47.3329958 35.7603014,49.2634576 C32.773664,50.0333035 26.4113241,48.1475566 19.935865,44.2446031 L24,73 L0,73 L8.26160177,34.4893378 C3.65406109,29.0807313 0.535660132,22.452516 1.05677633,15.0254539 C2.55833022,-6.37502057 32.3485306,-1.66718886 38.1433414,9.13393292 Z"
                 id="SKIN"
                 blush:i="0.1.0.0.1.0.0" />
            </g>
            <g
               id="Turban"
               transform="translate(40.000000, 22.000000)"
               blush:i="0.1.0.0.1.1">
              <mask
                 id="headfrontturban2-mask-2"
                 fill="#fff"
                 blush:i="0.1.0.0.1.1.0">
                <use
                   xlink:href="#headfrontturban2-path-1"
                   blush:i="0.1.0.0.1.1.0.0"
                   id="use109" />
              </mask>
              <use
                 id="Path"
                 fill="#FFA434"
                 xlink:href="#headfrontturban2-path-1"
                 blush:i="0.1.0.0.1.1.1" />
              <path
                 d="M34.1200359,-1.25901608 C30.8584911,12.5005919 28.3300264,22.1357612 26.5346419,27.6464918 C24.7137273,33.2355841 23.2304509,37.9704516 21.9545611,41.8451306 C24.5801764,36.0295537 27.9569456,28.56681 31.0112076,20.9117197 C33.2010503,15.4231782 35.5306478,8.39485486 38,-0.173250307 L40.9719724,-0.173250307 C36.290024,13.1700568 32.768261,22.4881471 30.4066836,27.7810206 C26.60679,36.297513 23.8767993,42.7645741 21.7019404,47.1041542 C25.3445515,41.763724 30.9484918,33.0516783 36.922643,21.335361 C39.1872587,16.894068 41.853295,10.0938106 44.9207521,0.934588622 L47.6868166,2.11790169 C43.0427818,13.7106968 39.4547239,21.7949743 36.922643,26.3707343 C28.6691874,41.2856732 20.7882084,50.2847641 18.0335245,52.8387957 C17.5576168,53.2800381 17.398031,53.3833045 17.5112894,53.1586499 C17.4740169,53.1518331 17.4460457,53.1289131 17.4278914,53.089452 C17.2342776,53.3828025 17.0414566,53.6396744 16.848515,53.8603451 C14.0706214,57.0374698 21.1787066,39.3265874 26.4178167,20.7516317 C28.0219544,15.0642561 29.6041303,7.83092542 31.1643443,-0.948360367 L34.1200359,-1.25901608 Z"
                 id="path113"
                 fill-opacity=".2"
                 fill="#000"
                 mask="url(#headfrontturban2-mask-2)"
                 blush:i="0.1.0.0.1.1.2" />
            </g>
          </g>
        </g>
        <g
           id="Bottom/Standing"
           transform="translate(0.000000, 187.000000) scale(1 1)"
           blush:width="300"
           blush:height="239"
           blush:component="Bottom/Standing"
           blush:i="0.1.0.1">
          <g
             id="Bottom/Standing/Sweatpants"
             stroke="none"
             stroke-width="1"
             fill="none"
             fill-rule="evenodd"
             blush:i="0.1.0.1.0">
            <polygon
               id="polygon118"
               fill="#915b3c"
               points="128 9.9475983e-14 164.630838 126.226909 181.860154 221 199.153197 221 181.890974 9.9475983e-14"
               blush:color="Skin-500"
               blush:i="0.1.0.1.0.0" />
            <polygon
               id="Shadow"
               fill-opacity=".1"
               fill="#000"
               points="128 9.9475983e-14 164.630838 126.226909 181.860154 221 199.153197 221 181.890974 9.9475983e-14"
               blush:i="0.1.0.1.0.1" />
            <path
               d="M111.537727,0 C114.093705,65.5742244 113.085665,101.340188 112.513606,107.297892 C111.941548,113.255595 108.69393,153.156298 86.5636874,223 L104.549973,223 C133.85784,155.996902 144.088936,116.096199 147.450326,107.297892 C150.811717,98.4995844 160.739403,62.7336205 175.233385,0 L111.537727,0 Z"
               id="path121"
               fill="#915b3c"
               blush:color="Skin-500"
               blush:i="0.1.0.1.0.2" />
            <path
               d="M127.213639,1.13686838e-13 C136.741891,43.4350253 153.221683,112.768359 176.653017,208 L201.946059,208 C203.814239,110.253828 195.86709,45.9204947 182.104613,1.13686838e-13 L127.213639,1.13686838e-13 Z"
               id="Pant"
               fill="#c7d1d9"
               blush:color="Bottom-700"
               blush:i="0.1.0.1.0.3" />
            <path
               d="M111.409919,0 C113.913164,65.5742244 107.425844,130.177256 87.3305078,209.020958 L114.316793,209.020958 C143.678541,143.017859 164.723052,78.7336205 179.105577,0 L111.409919,0 Z"
               id="path124"
               fill="#f2f2f2"
               blush:color="Bottom-500"
               blush:i="0.1.0.1.0.4" />
            <g
               id="Left"
               transform="translate(84.000000, 218.000000)"
               fill="#191847"
               blush:i="0.1.0.1.0.5">
              <path
                 d="M0,18 L0.99242267,2 C6.8029179,3.69942511 14.0806841,3.03275844 22.8257214,0 C32.2287535,6.660617 44.0659431,11.2086712 58.3372903,13.6441626 C59.4261013,13.829999 60.1581292,14.8632891 59.9723163,15.9521041 C59.9602834,16.0226139 59.9444765,16.0924273 59.9249637,16.1612435 L58.5529375,21 L58.5529375,21 L22.8257214,21 L1.98484534,21 L0,18 Z"
                 id="Shoe"
                 blush:i="0.1.0.1.0.5.0" />
            </g>
            <g
               id="Right"
               transform="translate(178.000000, 218.000000)"
               fill="#191847"
               blush:i="0.1.0.1.0.6">
              <path
                 d="M0,18 L0.99242267,2 C6.8029179,3.69942511 14.0806841,3.03275844 22.8257214,0 C32.2287535,6.660617 44.0659431,11.2086712 58.3372903,13.6441626 C59.4261013,13.829999 60.1581292,14.8632891 59.9723163,15.9521041 C59.9602834,16.0226139 59.9444765,16.0924273 59.9249637,16.1612435 L58.5529375,21 L58.5529375,21 L22.8257214,21 L1.98484534,21 L0,18 Z"
                 id="path128"
                 blush:i="0.1.0.1.0.6.0" />
            </g>
          </g>
        </g>
        <g
           id="g141"
           transform="translate(22.000000, 82.000000) scale(1 1)"
           blush:width="256"
           blush:height="187"
           blush:component="Body"
           blush:i="0.1.0.2">
          <g
             id="Body/Trench Coat"
             stroke="none"
             stroke-width="1"
             fill="none"
             fill-rule="evenodd"
             blush:i="0.1.0.2.0">
            <path
               d="M54.3748075,70.4422362 L71.7206892,74.8517457 C48.5010655,113.888004 36.0840272,134.518222 34.4695742,136.742401 C30.8370549,141.746803 33.4753713,151.405575 34.3717289,156.466114 C27.0159775,157.777312 30.4552622,146.986888 21.1392043,148.78923 C12.6359386,150.434324 5.23841582,155.412199 -2.21044035,147.785504 C-3.12623345,146.847846 -3.68533756,144.037711 -0.329858103,142.787288 C8.0298649,139.672029 20.4540206,133.669529 22.5472206,131.196025 C25.4016727,127.82296 36.0108683,107.571697 54.3748075,70.4422362 L54.3748075,70.4422362 Z M197.692975,90.2442388 L227.879596,115.83589 C236.347145,118.768177 243.354953,122.169788 248.90302,126.040723 C250.183668,127.382731 251.660283,130.022417 246.018183,129.189525 C240.376083,128.356632 234.403982,127.734299 233.485976,129.614404 C232.56797,131.49451 235.838922,134.048404 234.074175,136.548369 C232.897677,138.215012 228.219551,133.502554 220.039797,122.410996 L189.442799,107.140857 L197.692975,90.2442388 Z"
               id="path133"
               fill="#915b3c"
               transform="translate(123.586250, 113.509597) rotate(-4.000000) translate(-123.586250, -113.509597)"
               blush:color="Skin-500"
               blush:i="0.1.0.2.0.0" />
            <path
               d="M138.264162,2.04144427 C153.1728,32.8586321 173.34952,62.4239679 203.321564,87.6788376 C207.426219,87.3835185 211.889688,88.0634542 216.675075,89.6758318 C219.030261,90.4693828 220.296216,93.0219384 219.502665,95.3771242 C219.041858,96.7447568 217.987913,97.7450999 216.723906,98.188165 C217.638754,98.8563073 218.562849,99.520867 219.495159,100.181671 L211.447983,116.609623 C177.58505,99.7255288 145.757134,86.9958405 131.253857,59.1215578 C126.386182,49.766228 128.033751,17.9882599 127.569134,6.42756866 L138.264162,2.04144427 Z"
               id="Back-Arm"
               fill="#56919c"
               blush:color="Top-700"
               blush:i="0.1.0.2.0.1" />
            <path
               d="M90,113.909745 C121.438326,117.363418 146.183737,117.363418 164.236234,113.909745 C166.472817,113.481858 166.374598,103.840401 165.337385,101.207228 C149.185283,60.2018743 138.560302,30.1840325 138.560302,1.70263734 C135.596594,3.25072994 130.409827,3.48273097 123,2.39864042 C103.086202,31.7496339 93.9325378,65.4265407 90,113.909745 Z"
               id="Shirt"
               fill="#191847"
               blush:i="0.1.0.2.0.2" />
            <path
               d="M126.348425,-1.0658141e-14 C123,44.2807404 169.249642,140.9549 153.190593,223.518112 C123.507857,230.146789 81.1319105,209.522766 39.8828129,226 C41.4177174,192.750378 72.1641281,153.689543 84.1591577,118.756122 C83.0907846,117.752921 82.5343434,116.247171 82.8078928,114.695795 L83.3288374,111.741372 C83.6816959,109.740212 85.3063314,108.28273 87.2249777,108.053567 C87.5631559,106.554137 87.8526566,105.063334 88.0917371,103.583451 C90.1104671,91.0877276 86.6615358,78.8352569 86.8232868,66.8032625 C70.7430616,80.5217718 56.3180199,104.211352 43.5479488,137.871041 L43.5479488,137.871041 L24.6611622,132.313477 C25.3819892,129.635524 26.1286459,126.990471 26.9011324,124.378317 C24.72195,123.144957 22.1728798,117.466228 24.0066041,116.516161 C25.8996562,115.535355 27.905105,114.844989 30.0170446,114.438594 C47.3349841,62.2796711 75.6543384,24.1331607 114.975674,-4.19220214e-13 L114.975674,-4.19220214e-13 Z"
               id="Coat-Front"
               fill="#89c5cc"
               blush:color="Top-500"
               blush:i="0.1.0.2.0.3" />
            <polygon
               id="Shade-Lapel"
               fill-opacity=".1"
               fill="#000"
               points="119.105759 1 113.946604 16.8654451 124.335997 28.7590435 114.946604 38.1055065 137.662251 77 109.883587 38.1832119 119.105759 28.7590435 109.883587 18.2484583"
               blush:i="0.1.0.2.0.4" />
            <path
               d="M137,130 C139.209139,130 141,131.790861 141,134 C141,136.209139 139.209139,138 137,138 C134.790861,138 133,136.209139 133,134 C133,131.790861 134.790861,130 137,130 Z M136,107 C138.209139,107 140,108.790861 140,111 C140,113.209139 138.209139,115 136,115 C133.790861,115 132,113.209139 132,111 C132,108.790861 133.790861,107 136,107 Z M131,84 C133.209139,84 135,85.790861 135,88 C135,90.209139 133.209139,92 131,92 C128.790861,92 127,90.209139 127,88 C127,85.790861 128.790861,84 131,84 Z"
               id="Buttons"
               fill-opacity=".4"
               fill="#000"
               blush:i="0.1.0.2.0.5" />
          </g>
        </g>
      </g>
    </g>
    <g
       transform="translate(378.000000, 214.000000) scale(1 1)"
       blush:has-customizable-colors="true"
       blush:width="300"
       blush:height="426"
       id="g205"
       blush:component="Master/Pose/Sitting"
       blush:i="0.2">
      <g
         id="Master/Pose/Sitting"
         stroke="none"
         stroke-width="1"
         fill="none"
         fill-rule="evenodd"
         blush:has-customizable-colors="true"
         blush:i="0.2.0">
        <g
           id="g153"
           transform="translate(38.000000, 73.000000) scale(1 1)"
           blush:width="136"
           blush:height="104"
           blush:component="Head/Front"
           blush:i="0.2.0.0">
          <g
             id="Head/Front/Afro"
             stroke="none"
             stroke-width="1"
             fill="none"
             fill-rule="evenodd"
             blush:i="0.2.0.0.0">
            <path
               d="M61,77.7068588 C72.4289379,77.7068588 76.5854974,64.0240838 83.0786187,56.5153483 C87.7243138,51.143002 95.6530795,52.7449442 98,45.2237762 C103.901542,26.3111237 88.1061086,13 67.5,13 C46.8938914,13 33,24.6742524 30,42.2237762 C27,59.7733 40.3938914,77.7068588 61,77.7068588 Z"
               id="Hair-Back"
               fill="#ecdcbf"
               blush:color="Hair-500"
               blush:i="0.2.0.0.0.0" />
            <g
               id="g149"
               transform="translate(54.000000, 31.000000)"
               fill="#eac7a8"
               blush:color="Skin-500"
               blush:i="0.2.0.0.0.1">
              <path
                 d="M38.1433414,9.13393292 C43.9381521,19.9350547 43.249578,47.3329958 35.7603014,49.2634576 C32.773664,50.0333035 26.4113241,48.1475566 19.935865,44.2446031 L24,73 L0,73 L8.26160177,34.4893378 C3.65406109,29.0807313 0.535660132,22.452516 1.05677633,15.0254539 C2.55833022,-6.37502057 32.3485306,-1.66718886 38.1433414,9.13393292 Z"
                 id="path147"
                 blush:i="0.2.0.0.0.1.0" />
            </g>
            <path
               d="M93.5831606,40.1945268 C88.9933309,41.0561444 79.749454,45.438095 72.3793005,51.7237673 C71.507977,51.2620835 70.5087281,51 69.4466684,51 C66.0464589,51 63.2900445,53.6862915 63.2900445,57 C63.2900445,58.352507 63.7492372,59.6004922 64.5239753,60.6039629 C63.065081,63.0086601 62.0695654,65.5348236 61.7432388,68.1317726 C56.6870351,68.1317726 38.2335803,49 56.6167901,31 C75,13 101.566014,38.6959598 93.5831606,40.1945268 Z"
               id="Hair"
               fill="#ecdcbf"
               blush:color="Hair-500"
               blush:i="0.2.0.0.0.2" />
          </g>
        </g>
        <g
           id="Bottom/Sitting"
           transform="translate(-44.000000, 260.000000) scale(1 1)"
           blush:width="300"
           blush:height="239"
           blush:component="Bottom/Sitting"
           blush:i="0.2.0.1">
          <g
             id="Bottom/Sitting/Wheelchair"
             stroke="none"
             stroke-width="1"
             fill="none"
             fill-rule="evenodd"
             blush:i="0.2.0.1.0">
            <path
               d="M280.000005,22.8655557 C279.971611,44.0311277 260.656682,144.512004 259.648224,150.855869 C258.639766,157.199734 247.83665,159.275085 247.20755,151.348454 C246.206544,138.735846 244.3468,95.012719 246.20755,74.6716648 C246.751052,68.7302859 247.324148,62.9873499 247.901347,57.6071399 C237.750733,75.8422626 222.314469,101.618252 201.593128,134.933778 L190.076573,129.672175 C199.120166,99.8760987 206.535776,78.8408618 212.323403,66.5664641 C222.233227,45.5497154 231.525307,27.551672 235.436043,21.2120072 C240.602279,12.8370615 248.982027,13.9496495 254.885272,18.0967837 C262.064167,8.35825282 280.010813,14.8043944 280.000005,22.8655557 Z"
               id="path155"
               fill="#eac7a8"
               blush:color="Skin-500"
               blush:i="0.2.0.1.0.0" />
            <path
               d="M208.819223,123.340112 L213.936922,21.8299349 C217.625361,4.27739957 248.84365,12.4235349 248.830816,21.8299349 C248.801666,43.1853748 235.973522,116.956762 235.964839,123.319261 L208.819223,123.340112 Z"
               id="Leg-Back"
               fill="#191847"
               transform="translate(228.825019, 67.419630) rotate(20.000000) translate(-228.825019, -67.419630)"
               blush:color="Bottom-700"
               blush:i="0.2.0.1.0.1" />
            <path
               d="M281,30.1765514 C281,56.7177303 269.366261,119.105994 269.358267,124.950436 L241.17615,124 C246.102422,69.7571864 248.179877,42.4520039 247.408516,42.0844525 C245.672952,41.2574617 176.262132,51.6911698 155.444697,52.4790258 C125.425854,53.615118 113.00766,35.1988173 112,0.25055648 L170.147646,0.25055648 C219.869047,6.18567094 252.548003,10.3136421 268.184514,12.63447 C278.225902,14.1248493 281,22.8651399 281,30.1765514 Z"
               id="Leg-Front"
               fill="#393f82"
               blush:color="Bottom-500"
               blush:i="0.2.0.1.0.2" />
            <g
               id="g160"
               transform="translate(214.036816, 137.322315) rotate(14.000000) translate(-214.036816, -137.322315) translate(185.036816, 126.822315)"
               fill="#E4E4E4"
               blush:i="0.2.0.1.0.3">
              <path
                 d="M1.67813181,6.40192425 C0.559377268,9.38841089 4.54747351e-13,11.6229931 4.54747351e-13,13.1056708 C4.54747351e-13,14.908957 0.300414205,17.5404001 0.901242614,21 C2.99318117,21 21.7937852,21 57.3030548,21 C58.768738,16.1545073 57.9226607,13.5385816 54.7648228,13.1522232 C51.606985,12.7658647 48.9837155,12.4170139 46.8950143,12.1056708 L20.6799926,0.41888346 C20.1755635,0.194006431 19.584344,0.4206282 19.359467,0.925057349 C19.35562,0.933686736 19.3518954,0.94237021 19.3482945,0.951105155 L17.6632131,5.03869504 L17.6632131,5.03869504 C14.7398812,6.40265216 12.3643706,7.08463071 10.5366811,7.08463071 C9.05172687,7.08463071 7.00099246,6.48490544 4.38447792,5.28545491 L4.38448339,5.28544297 C3.38038273,4.82514778 2.19325534,5.26598921 1.73296014,6.27008987 C1.71312074,6.31336808 1.69483298,6.35734088 1.67813181,6.40192425 Z"
                 id="shoe"
                 blush:i="0.2.0.1.0.3.0" />
            </g>
            <g
               id="g164"
               transform="translate(244.000000, 130.000000)"
               fill="#E4E4E4"
               blush:i="0.2.0.1.0.4">
              <path
                 d="M1.67813181,6.40192425 C0.559377268,9.38841089 0,11.6229931 0,13.1056708 C0,14.908957 0.300414205,17.5404001 0.901242614,21 C2.99318117,21 21.7937852,21 57.3030548,21 C58.768738,16.1545073 57.9226607,13.5385816 54.7648228,13.1522232 C51.606985,12.7658647 48.9837155,12.4170139 46.8950143,12.1056708 L20.6799926,0.41888346 C20.1755635,0.194006431 19.584344,0.4206282 19.359467,0.925057349 C19.35562,0.933686736 19.3518954,0.94237021 19.3482945,0.951105155 L17.6632131,5.03869504 L17.6632131,5.03869504 C14.7398812,6.40265216 12.3643706,7.08463071 10.5366811,7.08463071 C9.05172687,7.08463071 7.00099246,6.48490544 4.38447792,5.28545491 L4.38448339,5.28544297 C3.38038273,4.82514778 2.19325534,5.26598921 1.73296014,6.27008987 C1.71312074,6.31336808 1.69483298,6.35734088 1.67813181,6.40192425 Z"
                 id="path162"
                 blush:i="0.2.0.1.0.4.0" />
            </g>
            <rect
               id="rect166"
               fill="#393F82"
               x="245"
               y="151"
               width="53"
               height="7"
               rx="3.5"
               blush:i="0.2.0.1.0.5" />
            <path
               d="M109,6 L216,6 C221.522847,6 226,10.4771525 226,16 L226,65 L226,65 L103,65 C100.790861,65 99,63.209139 99,61 L99,16 C99,10.4771525 103.477153,6 109,6 Z"
               id="Seat"
               fill="#393F82"
               blush:i="0.2.0.1.0.6" />
            <path
               d="M216,6 L218.193678,6 C223.091205,6 227.268082,9.54701889 228.061559,14.3798408 L250,148 L250,148 L239.314286,148"
               id="Wheel-Stuff"
               fill="#393F82"
               blush:i="0.2.0.1.0.7" />
            <circle
               id="Front-Wheel"
               fill="#191847"
               cx="245"
               cy="150"
               r="18"
               blush:i="0.2.0.1.0.8" />
            <g
               id="Wheel"
               transform="translate(36.000000, 14.000000)"
               fill="#191847"
               blush:i="0.2.0.1.0.9">
              <path
                 d="M76,0 C117.973641,0 152,34.026359 152,76 C152,117.973641 117.973641,152 76,152 C34.026359,152 0,117.973641 0,76 C0,34.026359 34.026359,0 76,0 Z M76,14 C41.7583455,14 14,41.7583455 14,76 C14,110.241654 41.7583455,138 76,138 C110.241654,138 138,110.241654 138,76 C138,41.7583455 110.241654,14 76,14 Z"
                 blush:i="0.2.0.1.0.9.0"
                 id="path171" />
              <rect
                 id="rect173"
                 x="72"
                 y="10"
                 width="8"
                 height="132"
                 blush:i="0.2.0.1.0.9.1" />
              <rect
                 id="rect175"
                 transform="translate(76.000000, 76.000000) rotate(45.000000) translate(-76.000000, -76.000000)"
                 x="72"
                 y="10"
                 width="8"
                 height="132"
                 rx="2"
                 blush:i="0.2.0.1.0.9.2" />
              <rect
                 id="rect177"
                 transform="translate(76.000000, 76.000000) rotate(90.000000) translate(-76.000000, -76.000000)"
                 x="72"
                 y="10"
                 width="8"
                 height="132"
                 rx="2"
                 blush:i="0.2.0.1.0.9.3" />
              <rect
                 id="rect179"
                 transform="translate(76.000000, 76.000000) rotate(135.000000) translate(-76.000000, -76.000000)"
                 x="72"
                 y="10"
                 width="8"
                 height="132"
                 rx="2"
                 blush:i="0.2.0.1.0.9.4" />
            </g>
          </g>
        </g>
        <g
           id="g202"
           transform="translate(-22.000000, 155.000000) scale(1 1)"
           blush:width="256"
           blush:height="187"
           blush:component="Body"
           blush:i="0.2.0.2">
          <defs
             blush:i="0.2.0.2.0"
             id="defs186">
            <path
               d="M8.50486985,11.3641526 C20.5328809,13.1391664 36.9471722,13.1391664 55.7504485,5 L60.0903301,21.0261575 C46.4526921,30.855406 28.3595972,37.8403661 13.9345776,35.1385465 C2.56686704,33.0093637 -1.08139191,18.2733952 8.50486985,11.3641526 Z"
               id="bodypointing-forward-path-1"
               blush:i="0.2.0.2.0.0" />
            <path
               d="M65.5437498,1.98951966e-13 C67.0746794,19.6687489 74.7801887,41.3453869 81.1040065,62.7603513 C94.0105334,65.9801967 115.654578,62.1842978 146.035933,51.3734208 C153.571674,66.9635189 157.055257,78.0780631 156.486685,84.7170535 C130.420927,98.3327976 108.0808,104.402393 89.6761367,104.801687 C90.2685109,115.717837 88.9396772,126.110233 84.4739328,135.605966 C75.2946804,155.124265 21.5450578,137.048144 3.47278757,140.605966 C-7.84459943,103.85132 14.0379108,88.9143806 14.0555178,65.3966157 C14.0747993,39.6421572 34.7544101,1.98951966e-13 37.7970006,1.98951966e-13 L37.7970006,1.98951966e-13 Z"
               id="bodypointing-forward-path-3"
               blush:i="0.2.0.2.0.1" />
          </defs>
          <g
             id="Body/Pointing Forward"
             stroke="none"
             stroke-width="1"
             fill="none"
             fill-rule="evenodd"
             blush:i="0.2.0.2.1">
            <path
               d="M238.556381,46.4077826 C242.889175,45.5157805 253.464286,37.6506887 255.286431,39.2475996 C257.982176,41.6101262 255.578484,48.864452 252.746364,52.4730906 C247.453134,59.2176317 243.070569,61.5240612 232.238377,64.5443446 C226.574749,66.1235046 220.451364,69.288795 213.868224,74.0402157 L213,58.7398397 L228.246523,50.3642065 C230.385826,42.2239107 232.943102,38.1282526 235.918351,38.0772323 C238.203961,37.0137608 234.223587,47.2997848 238.556381,46.4077826 Z M212.314801,11.541507 C209.515281,16.510379 206.794075,21.8627914 208.22032,23.3935933 C209.646565,24.9243953 213.203036,22.7859324 214.904525,25.3293729 C216.038851,27.0249998 209.962902,29.703613 196.676679,33.3652124 L171.455792,56.4576422 L158.638039,42.7002327 L193.347821,23.6898218 C199.119845,16.8355222 204.806897,11.5121983 210.408976,7.71984988 C212.120791,7.00519513 215.114322,6.57263502 212.314801,11.541507 Z"
               id="path188"
               fill="#dcae92"
               blush:color="Skin-700"
               blush:i="0.2.0.2.1.0" />
            <g
               id="Group-3"
               transform="translate(134.353117, 23.386150)"
               blush:i="0.2.0.2.1.1">
              <mask
                 id="bodypointing-forward-mask-2"
                 fill="#fff"
                 blush:i="0.2.0.2.1.1.0">
                <use
                   xlink:href="#bodypointing-forward-path-1"
                   blush:i="0.2.0.2.1.1.0.0"
                   id="use190" />
              </mask>
              <use
                 id="Mask"
                 fill="#56919c"
                 transform="translate(31.545165, 20.361910) rotate(-9.000000) translate(-31.545165, -20.361910)"
                 xlink:href="#bodypointing-forward-path-1"
                 blush:color="Top-700"
                 blush:i="0.2.0.2.1.1.1" />
            </g>
            <g
               id="Group-27"
               transform="translate(77.000000, -0.000000)"
               blush:i="0.2.0.2.1.2">
              <mask
                 id="bodypointing-forward-mask-4"
                 fill="#fff"
                 blush:i="0.2.0.2.1.2.0">
                <use
                   xlink:href="#bodypointing-forward-path-3"
                   blush:i="0.2.0.2.1.2.0.0"
                   id="use195" />
              </mask>
              <use
                 id="use198"
                 fill="#89c5cc"
                 xlink:href="#bodypointing-forward-path-3"
                 blush:color="Top-500"
                 blush:i="0.2.0.2.1.2.1" />
            </g>
          </g>
        </g>
      </g>
    </g>
    <g
       transform="translate(170.000000, 214.000000) scale(1 1)"
       blush:has-customizable-colors="true"
       blush:width="300"
       blush:height="426"
       id="g245"
       blush:component="Master/Pose/Standing"
       blush:i="0.3">
      <g
         id="g243"
         stroke="none"
         stroke-width="1"
         fill="none"
         fill-rule="evenodd"
         blush:has-customizable-colors="true"
         blush:i="0.3.0">
        <g
           id="g215"
           transform="translate(82.000000, 0.000000) scale(1 1)"
           blush:width="136"
           blush:height="104"
           blush:component="Head/Front"
           blush:i="0.3.0.0">
          <g
             id="Head/Front/Long"
             stroke="none"
             stroke-width="1"
             fill="none"
             fill-rule="evenodd"
             blush:i="0.3.0.0.0">
            <path
               d="M74.5,27 C85.2821207,27 94.2105014,34.9368049 95.7615049,45.2867779 C99.2080531,57.9860871 103.701616,86.5432912 99.1172687,91.0224659 L70.1172687,91.0224659 L70.1089864,90.8685463 C59.3601277,89.6792412 51,80.5659268 51,69.5 L51,48.5 C51,36.6258779 60.6258779,27 72.5,27 L74.5,27 Z"
               id="path207"
               fill="#4a312c"
               blush:color="Hair-500"
               blush:i="0.3.0.0.0.0" />
            <g
               id="g211"
               transform="translate(54.000000, 31.000000)"
               fill="#eac7a8"
               blush:color="Skin-500"
               blush:i="0.3.0.0.0.1">
              <path
                 d="M38.1433414,9.13393292 C43.9381521,19.9350547 43.249578,47.3329958 35.7603014,49.2634576 C32.773664,50.0333035 26.4113241,48.1475566 19.935865,44.2446031 L24,73 L0,73 L8.26160177,34.4893378 C3.65406109,29.0807313 0.535660132,22.452516 1.05677633,15.0254539 C2.55833022,-6.37502057 32.3485306,-1.66718886 38.1433414,9.13393292 Z"
                 id="path209"
                 blush:i="0.3.0.0.0.1.0" />
            </g>
            <path
               d="M73.0014183,28 C84.581449,28 88.2365853,33.3883223 91.3486809,37.9630857 C89.0214598,45.9483908 79.9899431,47.1322506 71.9650913,52.1099145 C71.0199697,51.3410485 69.8137784,50.8804131 68.5,50.8804131 C65.4624339,50.8804131 63,53.3428469 63,56.3804131 C63,59.4179792 65.4624339,61.8804131 68.5,61.8804131 C68.5838976,61.8804131 68.6673564,61.8785346 68.7503367,61.8748173 C69.8557449,73.7527524 69.4127451,87.3172545 66.1172687,90.5371269 L37.1172687,90.5371269 C35.5014749,62.4634848 51.1172687,73.3348557 51.1172687,46.9027926 C52.0907327,45.9516616 53.010584,45.010258 53.9207807,44.19836 L53.888877,43.4207004 C58.9105508,33.1402335 65.2813979,28 73.0014183,28 Z"
               id="Hair-Front"
               fill="#4a312c"
               blush:color="Hair-500"
               blush:i="0.3.0.0.0.2" />
          </g>
        </g>
        <g
           id="g234"
           transform="translate(0.000000, 187.000000) scale(1 1)"
           blush:width="300"
           blush:height="239"
           blush:component="Bottom/Standing"
           blush:i="0.3.0.1">
          <g
             id="Bottom/Standing/Jogging"
             stroke="none"
             stroke-width="1"
             fill="none"
             fill-rule="evenodd"
             blush:i="0.3.0.1.0">
            <polygon
               id="polygon217"
               fill="#dcae92"
               points="130 0 204.306413 124.226909 260.014844 229.25029 272.013946 229.25029 178.673688 5.090379e-13"
               blush:color="Skin-700"
               blush:i="0.3.0.1.0.0" />
            <g
               id="g221"
               transform="translate(251.000000, 218.000000)"
               fill="#E4E4E4"
               blush:i="0.3.0.1.0.1">
              <path
                 d="M1.67813181,6.40192425 C0.559377268,9.38841089 0,11.6229931 0,13.1056708 C0,14.908957 0.300414205,17.5404001 0.901242614,21 C2.99318117,21 21.7937852,21 57.3030548,21 C58.768738,16.1545073 57.9226607,13.5385816 54.7648228,13.1522232 C51.606985,12.7658647 48.9837155,12.4170139 46.8950143,12.1056708 L20.6799926,0.41888346 C20.1755635,0.194006431 19.584344,0.4206282 19.359467,0.925057349 C19.35562,0.933686736 19.3518954,0.94237021 19.3482945,0.951105155 L17.6632131,5.03869504 L17.6632131,5.03869504 C14.7398812,6.40265216 12.3643706,7.08463071 10.5366811,7.08463071 C9.05172687,7.08463071 7.00099246,6.48490544 4.38447792,5.28545491 L4.38448339,5.28544297 C3.38038273,4.82514778 2.19325534,5.26598921 1.73296014,6.27008987 C1.71312074,6.31336808 1.69483298,6.35734088 1.67813181,6.40192425 Z"
                 id="path219"
                 blush:i="0.3.0.1.0.1.0" />
            </g>
            <path
               d="M244.543057,212.432889 L267.683113,205.432889 C257.544824,175.124875 245.118911,141.772016 230.405374,105.374313 C215.691837,68.97661 199.890046,33.851839 183,2.84217094e-14 L117.644073,2.84217094e-14 C136.422172,42.821022 156.329475,81.7294172 177.365982,116.725186 C198.402489,151.720954 220.794847,183.623522 244.543057,212.432889 Z"
               id="path223"
               fill="#56919c"
               blush:color="Bottom-700"
               blush:i="0.3.0.1.0.2" />
            <path
               d="M125.116628,2.84217094e-14 C118.103498,43.6541888 104.577091,99.4274685 103.300563,101.148648 C102.449544,102.296102 71.8126514,112.562199 11.3898843,131.94694 L13.9818352,142.527938 C86.0358431,132.131776 124.00216,124.066006 127.880787,118.330628 C133.698727,109.72756 162.748486,41.763137 174,2.84217094e-14 L125.116628,2.84217094e-14 Z"
               id="path225"
               fill="#eac7a8"
               blush:color="Skin-500"
               blush:i="0.3.0.1.0.3" />
            <path
               d="M32.6295078,122.800477 L37.1949469,139.841939 C91.0871466,144.568621 124.108088,141.153296 136.25777,129.595966 C148.407453,118.038636 162.254504,74.839981 177.798925,-1.13686838e-13 L115.478146,-1.13686838e-13 C105.629567,61.2838742 100.12357,93.2121259 98.9601559,95.7847551 C97.7967416,98.3573843 75.6865256,107.362625 32.6295078,122.800477 Z"
               id="path227"
               fill="#89c5cc"
               blush:color="Bottom-500"
               blush:i="0.3.0.1.0.4" />
            <g
               id="g231"
               transform="translate(15.057502, 155.157254) rotate(80.000000) translate(-15.057502, -155.157254) translate(-13.942498, 144.657254)"
               fill="#E4E4E4"
               blush:i="0.3.0.1.0.5">
              <path
                 d="M1.67813181,6.40192425 C0.559377268,9.38841089 0,11.6229931 0,13.1056708 C0,14.908957 0.300414205,17.5404001 0.901242614,21 C2.99318117,21 21.7937852,21 57.3030548,21 C58.768738,16.1545073 57.9226607,13.5385816 54.7648228,13.1522232 C51.606985,12.7658647 48.9837155,12.4170139 46.8950143,12.1056708 L20.6799926,0.41888346 C20.1755635,0.194006431 19.584344,0.4206282 19.359467,0.925057349 C19.35562,0.933686736 19.3518954,0.94237021 19.3482945,0.951105155 L17.6632131,5.03869504 L17.6632131,5.03869504 C14.7398812,6.40265216 12.3643706,7.08463071 10.5366811,7.08463071 C9.05172687,7.08463071 7.00099246,6.48490544 4.38447792,5.28545491 L4.38448339,5.28544297 C3.38038273,4.82514778 2.19325534,5.26598921 1.73296014,6.27008987 C1.71312074,6.31336808 1.69483298,6.35734088 1.67813181,6.40192425 Z"
                 id="path229"
                 blush:i="0.3.0.1.0.5.0" />
            </g>
          </g>
        </g>
        <g
           id="g241"
           transform="translate(22.000000, 82.000000) scale(1 1)"
           blush:width="256"
           blush:height="187"
           blush:component="Body"
           blush:i="0.3.0.2">
          <g
             id="Body/Turtle Neck"
             stroke="none"
             stroke-width="1"
             fill="none"
             fill-rule="evenodd"
             blush:i="0.3.0.2.0">
            <path
               d="M60.9697919,67.4496834 L82.8671837,67.5318631 C66.1894326,121.56567 57.3363474,149.856914 56.3079281,152.405597 C53.9939846,158.140133 58.8906002,166.873732 60.9845874,171.567103 C54.1645409,174.61887 54.8912241,163.316929 46.2879189,167.319492 C38.4352209,170.972846 32.4616931,177.59248 23.3890352,171.994371 C22.2736052,171.306117 21.0512757,168.714714 24.0045784,166.68967 C31.3623323,161.644547 41.9653015,152.814672 43.3979297,149.908251 C45.3515741,145.944826 51.2088615,118.458637 60.9697919,67.4496834 L60.9697919,67.4496834 Z M199.493124,92.4603344 L227.821028,120.095357 C236.063404,123.611168 242.816857,127.493333 248.081387,131.741853 C249.265301,133.169925 250.554184,135.906184 244.983927,134.681747 C239.413671,133.45731 233.49953,132.419902 232.45261,134.23139 C231.405691,136.042878 234.490525,138.818722 232.555688,141.189494 C231.265796,142.770009 226.92779,137.742701 219.54167,126.10757 L190.084396,108.74029 L199.493124,92.4603344 Z"
               id="path236"
               fill="#eac7a8"
               blush:color="Skin-500"
               blush:i="0.3.0.2.0.0" />
            <path
               d="M122.768272,9.7139848 L131.253224,7.48281413 C149.019938,54.2642227 221.602897,80.8616426 227.451896,98.4190631 C229.596879,104.857833 225.154909,108.596168 227.774893,110.385298 L217.29519,119.561394 C215.205566,117.515062 211.513381,121.915723 202.815928,119.824345 C194.118475,117.732967 127.737533,66.5128914 122.768272,9.7139848 Z"
               id="Clothes-Back"
               fill="#8197a2"
               transform="translate(175.413267, 63.943241) rotate(5.000000) translate(-175.413267, -63.943241)"
               blush:color="Top-700"
               blush:i="0.3.0.2.0.1" />
            <path
               d="M112.315629,-4.72097411 L139.249859,-2.83754931 C141.453616,-2.68344757 143.115191,-0.772024866 142.961089,1.43173278 L142.241614,11.6763485 C141.22167,75.4733311 178.098291,91.7368983 169.887262,117.318245 C163.108761,138.436573 98.2273311,161.138686 87,140.43774 C82.4547451,132.057203 80.3928582,121.921313 80.1593383,110.901428 C77.2906083,119.368441 75.0207635,126.656945 73.3511268,132.767479 C70.4711839,143.30749 59.3062598,144.982871 59.3062598,149.043262 L59.3062598,149.043262 L44.5966299,144.982871 C45.5943495,139.466662 38.6598745,136.780597 40.5191881,124.456905 C48.8498993,69.2402236 71.2328417,29.2151944 107.668015,4.38181722 L108.046347,-1.0097438 C108.200449,-3.21350145 110.111872,-4.87507585 112.315629,-4.72097411 Z"
               id="Clothes-Front"
               fill="#b9d0dc"
               blush:color="Top-500"
               blush:i="0.3.0.2.0.2" />
          </g>
        </g>
      </g>
    </g>
  </g>
</svg>
